<svg xmlns="http://www.w3.org/2000/svg" viewBox="0 0 143.2 26.27"><defs><style>.cls-1{fill:#4374ba;}.cls-2{fill:#fff;}</style></defs><title>newlogo2</title><g id="Warstwa_2" data-name="Warstwa 2"><g id="Warstwa_3" data-name="Warstwa 3"><polygon class="cls-1" points="8.35 0.04 8.35 10.11 5.95 12.86 8.35 15.7 8.35 26.27 2.81 26.27 2.81 0.04 8.35 0.04"/><polygon class="cls-1" points="15.02 12.86 26.27 26.17 19.84 26.17 9.06 12.86 19.88 0 26.27 0 15.02 12.86"/><polygon class="cls-2" points="8.35 15.7 17.2 26.16 10.76 26.16 8.35 23.18 2.81 16.34 0 12.86 2.81 9.51 8.35 2.92 10.8 0 17.2 0 8.35 10.11 5.95 12.86 8.35 15.7"/><path class="cls-2" d="M38.82,13.31l7,8.29h-4l-6.15-7.46V21.6H32.36V5.29h3.33v7.33l6.17-7.33h4Z"/><path class="cls-2" d="M50.92,4.51V21.6H47.59V4.51Z"/><path class="cls-2" d="M61.76,9.4a4.19,4.19,0,0,1,1.68,2.06V8.8h3.3V21.6h-3.3V18.92A4.25,4.25,0,0,1,61.76,21a5.08,5.08,0,0,1-2.83.77A5.73,5.73,0,0,1,56,21,5.38,5.38,0,0,1,53.9,18.7a7.68,7.68,0,0,1-.74-3.5,7.71,7.71,0,0,1,.74-3.5A5.35,5.35,0,0,1,56,9.43a5.64,5.64,0,0,1,3-.79A5.15,5.15,0,0,1,61.76,9.4Zm-4.29,3.08a3.78,3.78,0,0,0-.94,2.72,3.76,3.76,0,0,0,.94,2.72,3.63,3.63,0,0,0,5,0,3.69,3.69,0,0,0,1-2.69,3.72,3.72,0,0,0-1-2.71,3.32,3.32,0,0,0-2.49-1A3.26,3.26,0,0,0,57.47,12.48Z"/><path class="cls-2" d="M78,9.82A5,5,0,0,1,79.75,13H76.64a2.52,2.52,0,0,0-.85-1.48,2.57,2.57,0,0,0-1.72-.55,2,2,0,0,0-1.32.39,1.32,1.32,0,0,0-.47,1.06,1.09,1.09,0,0,0,.38.86,2.9,2.9,0,0,0,.94.51c.38.12.92.27,1.63.44a16,16,0,0,1,2.41.68A3.94,3.94,0,0,1,79.25,16a3.07,3.07,0,0,1,.67,2.09,3.23,3.23,0,0,1-1.31,2.66,5.64,5.64,0,0,1-3.52,1A6.73,6.73,0,0,1,71,20.64a4.7,4.7,0,0,1-1.87-3.2h3.19a2.09,2.09,0,0,0,.85,1.49,3.12,3.12,0,0,0,1.91.55,1.87,1.87,0,0,0,1.29-.41A1.35,1.35,0,0,0,76.83,18a1.14,1.14,0,0,0-.39-.9,2.62,2.62,0,0,0-1-.53c-.39-.12-.94-.27-1.64-.44a19.56,19.56,0,0,1-2.37-.66,3.74,3.74,0,0,1-1.56-1.07,3,3,0,0,1-.65-2,3.29,3.29,0,0,1,1.3-2.7,5.59,5.59,0,0,1,3.58-1A5.87,5.87,0,0,1,78,9.82Z"/><path class="cls-2" d="M90.6,9.82A5,5,0,0,1,92.39,13H89.28a2.43,2.43,0,0,0-2.57-2,2,2,0,0,0-1.32.39,1.29,1.29,0,0,0-.47,1.06,1.08,1.08,0,0,0,.37.86,3.06,3.06,0,0,0,.95.51c.38.12.92.27,1.63.44a16,16,0,0,1,2.41.68A4,4,0,0,1,91.89,16a3.12,3.12,0,0,1,.67,2.09,3.23,3.23,0,0,1-1.31,2.66,5.65,5.65,0,0,1-3.53,1,6.78,6.78,0,0,1-4.08-1.12,4.69,4.69,0,0,1-1.86-3.2H85a2.08,2.08,0,0,0,.84,1.49,3.16,3.16,0,0,0,1.91.55,1.88,1.88,0,0,0,1.3-.41A1.35,1.35,0,0,0,89.47,18a1.14,1.14,0,0,0-.39-.9,2.59,2.59,0,0,0-1-.53c-.38-.12-.93-.27-1.64-.44a20.67,20.67,0,0,1-2.37-.66,3.77,3.77,0,0,1-1.55-1.07,3,3,0,0,1-.65-2,3.29,3.29,0,0,1,1.3-2.7,5.59,5.59,0,0,1,3.58-1A5.87,5.87,0,0,1,90.6,9.82Z"/><path class="cls-1" d="M112.86,5.48V21.6h-3.3V10.35L105.34,21.6h-2.88L98.24,10.4V21.6H94.92V5.48h4l5,12.12,4.9-12.12Z"/><path class="cls-2" d="M127.93,15.83h-9.58a3.45,3.45,0,0,0,1,2.51,3.06,3.06,0,0,0,2.17.81,3.2,3.2,0,0,0,1.92-.55,2.5,2.5,0,0,0,1-1.5h3.51a5.4,5.4,0,0,1-1.11,2.4,5.76,5.76,0,0,1-2.18,1.66,7.15,7.15,0,0,1-3,.6,7.07,7.07,0,0,1-3.39-.79,5.66,5.66,0,0,1-2.32-2.28,7.06,7.06,0,0,1-.82-3.49,7.13,7.13,0,0,1,.82-3.5,5.52,5.52,0,0,1,2.32-2.27,7.07,7.07,0,0,1,3.39-.79,6.89,6.89,0,0,1,3.38.79,5.49,5.49,0,0,1,2.24,2.16,6.12,6.12,0,0,1,.79,3.13A6.91,6.91,0,0,1,127.93,15.83ZM123.86,12a3.28,3.28,0,0,0-2.23-.8,3.11,3.11,0,0,0-3.28,3.18h6.35A2.89,2.89,0,0,0,123.86,12Z"/><path class="cls-2" d="M138.22,9.4a4.29,4.29,0,0,1,1.68,2.06v-7h3.3V21.6h-3.3V18.92A4.37,4.37,0,0,1,138.22,21a5,5,0,0,1-2.82.77,5.73,5.73,0,0,1-3-.78,5.32,5.32,0,0,1-2.06-2.28,7.68,7.68,0,0,1-.75-3.5,7.71,7.71,0,0,1,.75-3.5,5.29,5.29,0,0,1,2.06-2.27,5.64,5.64,0,0,1,3-.79A5.12,5.12,0,0,1,138.22,9.4Zm-4.28,3.08A3.78,3.78,0,0,0,133,15.2a3.76,3.76,0,0,0,.94,2.72,3.63,3.63,0,0,0,5,0,3.69,3.69,0,0,0,1-2.69,3.72,3.72,0,0,0-1-2.71,3.35,3.35,0,0,0-2.49-1A3.26,3.26,0,0,0,133.94,12.48Z"/></g></g></svg>