<svg xmlns="http://www.w3.org/2000/svg" viewBox="0 0 166.89 26.27"><defs><style>.cls-1{fill:#72cbd0;}.cls-2{fill:#fff;}</style></defs><title>logo</title><g id="Warstwa_2" data-name="Warstwa 2"><g id="Warstwa_3" data-name="Warstwa 3"><polygon class="cls-1" points="8.22 0.04 8.22 10.11 5.85 12.86 8.22 15.7 8.22 26.27 2.77 26.27 2.77 0.04 8.22 0.04"/><polygon class="cls-1" points="14.78 12.86 25.85 26.17 19.52 26.17 8.92 12.86 19.56 0 25.85 0 14.78 12.86"/><polygon class="cls-2" points="8.22 15.7 16.93 26.16 10.59 26.16 8.22 23.18 2.77 16.34 0 12.86 2.77 9.51 8.22 2.92 10.63 0 16.93 0 8.22 10.11 5.85 12.86 8.22 15.7"/><path class="cls-2" d="M42.79,13.34l8.38,9.93h-4.8l-7.31-8.93v8.93h-4V3.75h4v8.76L46.4,3.75h4.77Z"/><path class="cls-2" d="M57.17,2.81V23.27h-4V2.81Z"/><path class="cls-2" d="M70.06,8.67a5,5,0,0,1,2,2.46V8H76V23.27H72.05V20.06a5,5,0,0,1-2,2.48,6,6,0,0,1-3.36.92,6.68,6.68,0,0,1-3.53-.94,6.33,6.33,0,0,1-2.46-2.72,9.34,9.34,0,0,1-.88-4.19,9.34,9.34,0,0,1,.88-4.19A6.33,6.33,0,0,1,63.17,8.7a6.68,6.68,0,0,1,3.53-.94A6,6,0,0,1,70.06,8.67ZM65,12.35a4.55,4.55,0,0,0-1.12,3.26A4.5,4.5,0,0,0,65,18.86a4.3,4.3,0,0,0,5.93,0,4.45,4.45,0,0,0,1.16-3.22,4.5,4.5,0,0,0-1.16-3.25,4,4,0,0,0-3-1.2A3.87,3.87,0,0,0,65,12.35Z"/><path class="cls-2" d="M89.32,9.17a6.08,6.08,0,0,1,2.13,3.76h-3.7a3,3,0,0,0-1-1.77,3.06,3.06,0,0,0-2-.67,2.37,2.37,0,0,0-1.57.47,1.57,1.57,0,0,0-.56,1.28,1.28,1.28,0,0,0,.44,1,3.34,3.34,0,0,0,1.12.61c.45.15,1.1.32,1.94.52a19.65,19.65,0,0,1,2.87.82,4.74,4.74,0,0,1,1.91,1.35,3.74,3.74,0,0,1,.8,2.51,3.84,3.84,0,0,1-1.56,3.18,6.63,6.63,0,0,1-4.19,1.21,8,8,0,0,1-4.85-1.34,5.62,5.62,0,0,1-2.21-3.83h3.78a2.52,2.52,0,0,0,1,1.79,3.72,3.72,0,0,0,2.27.65,2.22,2.22,0,0,0,1.54-.49A1.61,1.61,0,0,0,88,19a1.36,1.36,0,0,0-.47-1.07,3.13,3.13,0,0,0-1.15-.64c-.45-.15-1.1-.32-1.94-.53A22.24,22.24,0,0,1,81.6,16a4.5,4.5,0,0,1-1.85-1.29A3.54,3.54,0,0,1,79,12.24,4,4,0,0,1,80.52,9a6.61,6.61,0,0,1,4.26-1.24A6.91,6.91,0,0,1,89.32,9.17Z"/><path class="cls-2" d="M104.35,9.17a6.08,6.08,0,0,1,2.13,3.76h-3.7a3,3,0,0,0-1-1.77,3.1,3.1,0,0,0-2-.67,2.39,2.39,0,0,0-1.57.47,1.6,1.6,0,0,0-.56,1.28,1.29,1.29,0,0,0,.45,1,3.25,3.25,0,0,0,1.12.61c.45.15,1.09.32,1.94.52a20,20,0,0,1,2.87.82,4.71,4.71,0,0,1,1.9,1.35,3.69,3.69,0,0,1,.8,2.51,3.83,3.83,0,0,1-1.55,3.18,6.65,6.65,0,0,1-4.19,1.21,8,8,0,0,1-4.85-1.34,5.59,5.59,0,0,1-2.22-3.83h3.79a2.52,2.52,0,0,0,1,1.79,3.7,3.7,0,0,0,2.27.65,2.24,2.24,0,0,0,1.54-.49A1.63,1.63,0,0,0,103,19a1.35,1.35,0,0,0-.46-1.07,3.13,3.13,0,0,0-1.15-.64c-.46-.15-1.11-.32-2-.53A22.24,22.24,0,0,1,96.62,16a4.57,4.57,0,0,1-1.85-1.29A3.59,3.59,0,0,1,94,12.24,4,4,0,0,1,95.54,9a6.62,6.62,0,0,1,4.27-1.24A6.92,6.92,0,0,1,104.35,9.17Z"/><path class="cls-1" d="M130.81,4v19.3h-3.92V9.8l-5,13.47h-3.42l-5-13.41V23.27h-4V4h4.79l5.94,14.52L126,4Z"/><path class="cls-2" d="M148.72,16.36H137.34a4.2,4.2,0,0,0,1.12,3,3.61,3.61,0,0,0,2.58,1,3.74,3.74,0,0,0,2.29-.67,3,3,0,0,0,1.16-1.79h4.18a6.57,6.57,0,0,1-1.32,2.87,6.77,6.77,0,0,1-2.59,2,8.42,8.42,0,0,1-3.52.72,8.31,8.31,0,0,1-4-.95,6.79,6.79,0,0,1-2.75-2.72,8.55,8.55,0,0,1-1-4.18,8.62,8.62,0,0,1,1-4.19A6.61,6.61,0,0,1,137.2,8.7a8.42,8.42,0,0,1,4-.94,8.23,8.23,0,0,1,4,.94,6.61,6.61,0,0,1,2.66,2.58,7.41,7.41,0,0,1,.94,3.75A6.77,6.77,0,0,1,148.72,16.36Zm-4.83-4.57a3.86,3.86,0,0,0-2.65-1,3.92,3.92,0,0,0-2.69,1,4,4,0,0,0-1.21,2.85h7.54A3.41,3.41,0,0,0,143.89,11.79Z"/><path class="cls-2" d="M161,8.67a5.2,5.2,0,0,1,2,2.46V2.81h3.93V23.27H163V20.06a5.29,5.29,0,0,1-2,2.48,6,6,0,0,1-3.35.92,6.68,6.68,0,0,1-3.53-.94,6.33,6.33,0,0,1-2.46-2.72,9.47,9.47,0,0,1-.88-4.19,9.47,9.47,0,0,1,.88-4.19,6.33,6.33,0,0,1,2.46-2.72,6.68,6.68,0,0,1,3.53-.94A6,6,0,0,1,161,8.67Zm-5.09,3.68a4.55,4.55,0,0,0-1.12,3.26,4.5,4.5,0,0,0,1.12,3.25,4.3,4.3,0,0,0,5.93,0A4.4,4.4,0,0,0,163,15.61a4.46,4.46,0,0,0-1.16-3.25,4,4,0,0,0-3-1.2A3.87,3.87,0,0,0,155.87,12.35Z"/></g></g></svg>